<svg width="133" height="321" viewBox="0 0 133 321" fill="none" xmlns="http://www.w3.org/2000/svg">
<path d="M105.11 308.04L101.722 305.914L101.722 305.914L105.11 308.04ZM44.18 314.61L45.5986 310.87L45.5881 310.866L45.5775 310.862L44.18 314.61ZM36.08 308.04L39.4981 305.962L39.4981 305.962L36.08 308.04ZM36.08 283.29L39.4796 285.398L39.4889 285.383L39.4981 285.368L36.08 283.29ZM44.18 276.72L45.5775 280.468L45.6162 280.454L45.6545 280.438L44.18 276.72ZM96.83 276.72L95.3983 280.455L95.4153 280.462L95.4325 280.468L96.83 276.72ZM105.11 283.29L108.479 281.134L108.474 281.125L108.468 281.117L105.11 283.29ZM96.74 290.85L93.7504 293.507L93.7882 293.55L93.8272 293.591L96.74 290.85ZM92.78 288.69L93.6181 284.779L93.6181 284.779L92.78 288.69ZM48.23 288.69L47.3623 284.785L47.3623 284.785L48.23 288.69ZM44.45 290.85L47.3628 293.591L47.4456 293.504L47.5229 293.411L44.45 290.85ZM44.45 300.48L47.5229 297.919L47.482 297.87L47.4396 297.823L44.45 300.48ZM48.23 302.64L47.3623 306.545L47.3623 306.545L48.23 302.64ZM92.78 302.73L93.4832 306.668L93.5509 306.656L93.6181 306.641L92.78 302.73ZM96.74 300.57L93.7504 297.913L93.7504 297.913L96.74 300.57ZM103.99 295.71C103.99 300.424 103.106 303.708 101.722 305.914L108.498 310.166C110.954 306.252 111.99 301.316 111.99 295.71L103.99 295.71ZM101.722 305.914C100.303 308.175 98.2752 309.82 95.453 310.854L98.207 318.366C102.585 316.76 106.077 314.025 108.498 310.166L101.722 305.914ZM95.453 310.854C92.3991 311.974 88.6268 312.59 84.05 312.59L84.05 320.59C89.3132 320.59 94.0609 319.886 98.207 318.366L95.453 310.854ZM84.05 312.59L56.78 312.59L56.78 320.59L84.05 320.59L84.05 312.59ZM56.78 312.59C52.1974 312.59 48.5055 311.973 45.5986 310.87L42.7614 318.35C46.8144 319.887 51.5226 320.59 56.78 320.59L56.78 312.59ZM45.5775 310.862C42.8297 309.837 40.8644 308.21 39.4981 305.962L32.6619 310.118C35.0156 313.99 38.4503 316.743 42.7825 318.358L45.5775 310.862ZM39.4981 305.962C38.1509 303.746 37.29 300.442 37.29 295.71L29.29 295.71C29.29 301.298 30.289 306.214 32.6619 310.118L39.4981 305.962ZM37.29 295.71C37.29 290.83 38.1608 287.525 39.4796 285.398L32.6804 281.182C30.2792 285.055 29.29 290.03 29.29 295.71L37.29 295.71ZM39.4981 285.368C40.8644 283.12 42.8297 281.493 45.5775 280.468L42.7825 272.972C38.4502 274.587 35.0156 277.34 32.6619 281.212L39.4981 285.368ZM45.6545 280.438C48.5432 279.293 52.2145 278.65 56.78 278.65L56.78 270.65C51.5055 270.65 46.7768 271.387 42.7055 273.002L45.6545 280.438ZM56.78 278.65L84.14 278.65L84.14 270.65L56.78 270.65L56.78 278.65ZM84.14 278.65C88.6329 278.65 92.3571 279.289 95.3983 280.455L98.2617 272.985C94.1029 271.391 89.3671 270.65 84.14 270.65L84.14 278.65ZM95.4325 280.468C98.1982 281.499 100.257 283.153 101.752 285.463L108.468 281.117C106.003 277.307 102.542 274.581 98.2275 272.972L95.4325 280.468ZM101.741 285.446C103.095 287.563 103.99 290.848 103.99 295.71L111.99 295.71C111.99 290.012 110.965 285.017 108.479 281.134L101.741 285.446ZM102.18 295.71C102.18 293.042 101.623 290.202 99.6528 288.109L93.8272 293.591C93.7771 293.538 94.18 293.938 94.18 295.71L102.18 295.71ZM99.7296 288.193C98.1033 286.363 95.9686 285.282 93.6181 284.779L91.9419 292.601C92.9514 292.818 93.4567 293.177 93.7504 293.507L99.7296 288.193ZM93.6181 284.779C91.6247 284.352 89.5101 284.15 87.29 284.15L87.29 292.15C89.0299 292.15 90.5753 292.308 91.9419 292.601L93.6181 284.779ZM87.29 284.15L53.72 284.15L53.72 292.15L87.29 292.15L87.29 284.15ZM53.72 284.15C51.4518 284.15 49.3233 284.349 47.3623 284.785L49.0977 292.595C50.3767 292.311 51.9082 292.15 53.72 292.15L53.72 284.15ZM47.3623 284.785C45.0405 285.301 42.9409 286.413 41.3771 288.289L47.5229 293.411C47.7591 293.127 48.1795 292.799 49.0977 292.595L47.3623 284.785ZM41.5372 288.109C39.5671 290.202 39.01 293.042 39.01 295.71L47.01 295.71C47.01 293.938 47.4129 293.538 47.3628 293.591L41.5372 288.109ZM39.01 295.71C39.01 298.353 39.6084 301.054 41.4604 303.137L47.4396 297.823C47.3716 297.746 47.01 297.267 47.01 295.71L39.01 295.71ZM41.3771 303.041C42.9409 304.917 45.0405 306.029 47.3623 306.545L49.0977 298.735C48.1795 298.531 47.7591 298.203 47.5229 297.919L41.3771 303.041ZM47.3623 306.545C49.3233 306.981 51.4518 307.18 53.72 307.18L53.72 299.18C51.9082 299.18 50.3767 299.019 49.0977 298.735L47.3623 306.545ZM53.72 307.18L87.29 307.18L87.29 299.18L53.72 299.18L53.72 307.18ZM87.29 307.18C89.4693 307.18 91.5377 307.015 93.4832 306.668L92.0768 298.792C90.6623 299.045 89.0707 299.18 87.29 299.18L87.29 307.18ZM93.6181 306.641C95.9686 306.138 98.1033 305.057 99.7296 303.227L93.7504 297.913C93.4567 298.243 92.9514 298.602 91.9419 298.819L93.6181 306.641ZM99.7296 303.227C101.597 301.126 102.18 298.378 102.18 295.71L94.18 295.71C94.18 297.362 93.8027 297.854 93.7504 297.913L99.7296 303.227ZM107 264.797L107 268.797L111 268.797L111 264.797L107 264.797ZM34.1 264.797L30.1 264.797L30.1 268.797L34.1 268.797L34.1 264.797ZM35.9 234.917L39.667 236.262L39.6813 236.222L39.6947 236.182L35.9 234.917ZM41.84 227.177L43.9404 230.581L43.9664 230.565L43.9921 230.549L41.84 227.177ZM61.28 225.287L60.3806 229.185L60.3806 229.185L61.28 225.287ZM67.31 228.077L64.8387 231.222L64.8465 231.228L64.8542 231.235L67.31 228.077ZM71.09 233.387L67.3694 234.856L68.6981 238.222L72.18 237.236L71.09 233.387ZM107 223.217L111 223.217L111 217.927L105.91 219.368L107 223.217ZM107 236.537L108.022 240.404L111 239.618L111 236.537L107 236.537ZM73.61 245.357L72.5884 241.49L69.61 242.277L69.61 245.357L73.61 245.357ZM73.61 251.477L69.61 251.477L69.61 255.477L73.61 255.477L73.61 251.477ZM107 251.477L111 251.477L111 247.477L107 247.477L107 251.477ZM65.24 251.477L65.24 255.477L69.24 255.477L69.24 251.477L65.24 251.477ZM64.16 241.217L67.7661 239.486L67.7521 239.457L67.7377 239.428L64.16 241.217ZM60.56 237.887L62.0692 234.183L62.046 234.173L62.0226 234.164L60.56 237.887ZM45.98 238.967L48.295 242.229L48.3552 242.186L48.4137 242.142L45.98 238.967ZM43.19 251.477L39.19 251.477L39.19 255.477L43.19 255.477L43.19 251.477ZM107 260.797L34.1 260.797L34.1 268.797L107 268.797L107 260.797ZM38.1 264.797L38.1 247.337L30.1 247.337L30.1 264.797L38.1 264.797ZM38.1 247.337C38.1 242.714 38.6674 239.061 39.667 236.262L32.133 233.572C30.7326 237.493 30.1 242.12 30.1 247.337L38.1 247.337ZM39.6947 236.182C40.5662 233.568 41.9907 231.784 43.9404 230.581L39.7396 223.773C36.0493 226.05 33.5138 229.427 32.1053 233.652L39.6947 236.182ZM43.9921 230.549C45.9406 229.305 48.9361 228.477 53.36 228.477L53.36 220.477C48.0639 220.477 43.3794 221.449 39.6879 223.805L43.9921 230.549ZM53.36 228.477C56.062 228.477 58.3925 228.726 60.3806 229.185L62.1794 221.39C59.4874 220.768 56.538 220.477 53.36 220.477L53.36 228.477ZM60.3806 229.185C62.2191 229.609 63.6754 230.308 64.8387 231.222L69.7813 224.932C67.5846 223.206 65.0209 222.045 62.1794 221.39L60.3806 229.185ZM64.8542 231.235C65.8081 231.976 66.6809 233.112 67.3694 234.856L74.8106 231.918C73.6991 229.102 72.0519 226.698 69.7658 224.92L64.8542 231.235ZM72.18 237.236L108.09 227.066L105.91 219.368L70 229.538L72.18 237.236ZM103 223.217L103 236.537L111 236.537L111 223.217L103 223.217ZM105.978 232.67L72.5884 241.49L74.6316 249.224L108.022 240.404L105.978 232.67ZM69.61 245.357L69.61 251.477L77.61 251.477L77.61 245.357L69.61 245.357ZM73.61 255.477L107 255.477L107 247.477L73.61 247.477L73.61 255.477ZM103 251.477L103 264.797L111 264.797L111 251.477L103 251.477ZM69.24 251.477L69.24 247.337L61.24 247.337L61.24 251.477L69.24 251.477ZM69.24 247.337C69.24 244.455 68.849 241.742 67.7661 239.486L60.5539 242.948C60.911 243.692 61.24 245.059 61.24 247.337L69.24 247.337ZM67.7377 239.428C66.5221 236.997 64.5854 235.208 62.0692 234.183L59.0508 241.591C59.7746 241.886 60.2379 242.317 60.5823 243.006L67.7377 239.428ZM62.0226 234.164C59.7226 233.261 57.0529 232.897 54.17 232.897L54.17 240.897C56.4471 240.897 58.0374 241.194 59.0974 241.61L62.0226 234.164ZM54.17 232.897C50.1296 232.897 46.3579 233.637 43.5463 235.793L48.4137 242.142C49.2021 241.537 50.8904 240.897 54.17 240.897L54.17 232.897ZM43.665 235.705C40.204 238.161 39.19 242.396 39.19 246.617L47.19 246.617C47.19 243.279 48.036 242.413 48.295 242.229L43.665 235.705ZM39.19 246.617L39.19 251.477L47.19 251.477L47.19 246.617L39.19 246.617ZM43.19 255.477L65.24 255.477L65.24 247.477L43.19 247.477L43.19 255.477ZM104.93 207.859L101.689 205.515L104.93 207.859ZM96.29 213.979L97.5003 217.792L97.5369 217.78L97.5732 217.768L96.29 213.979ZM44.99 213.979L46.2003 210.167L46.2003 210.167L44.99 213.979ZM36.35 207.679L39.6884 205.476L39.6833 205.468L39.6782 205.461L36.35 207.679ZM35.81 183.199L39.283 185.184L39.283 185.184L35.81 183.199ZM43.1 176.899L44.5735 180.618L44.6162 180.601L44.6585 180.583L43.1 176.899ZM58.31 174.919L62.31 174.919L62.31 170.919L58.31 170.919L58.31 174.919ZM58.31 187.609L58.31 191.609L62.31 191.609L62.31 187.609L58.31 187.609ZM48.14 188.149L48.8432 192.087L48.9109 192.075L48.9781 192.061L48.14 188.149ZM44.36 190.129L47.2781 192.865L47.366 192.771L47.4477 192.672L44.36 190.129ZM44.72 200.029L41.969 202.933L42.0104 202.972L42.0528 203.01L44.72 200.029ZM49.22 202.009L48.5831 205.958L48.6454 205.968L48.7081 205.977L49.22 202.009ZM92.42 201.739L93.301 205.641L93.301 205.641L92.42 201.739ZM96.74 199.399L99.721 202.067L99.761 202.022L99.7996 201.976L96.74 199.399ZM96.56 189.589L93.6562 192.34L93.6562 192.34L96.56 189.589ZM92.06 187.249L91.0899 191.13L91.1473 191.144L91.2052 191.157L92.06 187.249ZM78.38 186.529L78.38 182.529L74.38 182.529L74.38 186.529L78.38 186.529ZM78.38 194.359L78.38 198.359L82.38 198.359L82.38 194.359L78.38 194.359ZM70.01 194.359L66.01 194.359L66.01 198.359L70.01 198.359L70.01 194.359ZM70.01 174.559L70.01 170.559L66.01 170.559L66.01 174.559L70.01 174.559ZM107 174.559L111 174.559L111 170.559L107 170.559L107 174.559ZM107 183.109L107.545 187.072L111 186.597L111 183.109L107 183.109ZM99.8 184.099L99.2551 180.137L84.273 182.197L98.3144 187.813L99.8 184.099ZM105.74 188.509L108.892 186.047L108.887 186.04L108.882 186.034L105.74 188.509ZM103.99 196.429C103.99 200.699 103.08 203.592 101.689 205.515L108.171 210.204C110.86 206.486 111.99 201.76 111.99 196.429L103.99 196.429ZM101.689 205.515C100.197 207.577 98.0453 209.162 95.0068 210.191L97.5732 217.768C101.975 216.277 105.583 213.782 108.171 210.204L101.689 205.515ZM95.0797 210.167C91.7845 211.213 87.7704 211.779 82.97 211.779L82.97 219.779C88.3696 219.779 93.2355 219.146 97.5003 217.792L95.0797 210.167ZM82.97 211.779L58.49 211.779L58.49 219.779L82.97 219.779L82.97 211.779ZM58.49 211.779C53.5588 211.779 49.4875 211.211 46.2003 210.167L43.7797 217.792C48.0524 219.148 52.9812 219.779 58.49 219.779L58.49 211.779ZM46.2003 210.167C43.1969 209.214 41.1113 207.632 39.6884 205.476L33.0116 209.883C35.5487 213.727 39.223 216.345 43.7797 217.792L46.2003 210.167ZM39.6782 205.461C38.2326 203.292 37.29 199.969 37.29 195.079L29.29 195.079C29.29 200.87 30.3874 205.947 33.0218 209.898L39.6782 205.461ZM37.29 195.079C37.29 190.49 38.0735 187.301 39.283 185.184L32.337 181.215C30.1865 184.978 29.29 189.709 29.29 195.079L37.29 195.079ZM39.283 185.184C40.5076 183.041 42.2281 181.547 44.5735 180.618L41.6265 173.181C37.6119 174.771 34.4724 177.478 32.337 181.215L39.283 185.184ZM44.6585 180.583C47.1522 179.528 50.3989 178.919 54.53 178.919L54.53 170.919C49.6611 170.919 45.2877 171.631 41.5414 173.216L44.6585 180.583ZM54.53 178.919L58.31 178.919L58.31 170.919L54.53 170.919L54.53 178.919ZM54.31 174.919L54.31 187.609L62.31 187.609L62.31 174.919L54.31 174.919ZM58.31 183.609L54.17 183.609L54.17 191.609L58.31 191.609L58.31 183.609ZM54.17 183.609C51.642 183.609 49.3359 183.802 47.3019 184.238L48.9781 192.061C50.304 191.777 52.018 191.609 54.17 191.609L54.17 183.609ZM47.4368 184.212C45.0998 184.629 42.8744 185.641 41.2723 187.587L47.4477 192.672C47.5255 192.578 47.8202 192.27 48.8432 192.087L47.4368 184.212ZM41.4418 187.394C39.5025 189.462 39.01 192.314 39.01 194.899L47.01 194.899C47.01 194.04 47.0993 193.474 47.1963 193.131C47.2907 192.798 47.3632 192.775 47.2781 192.865L41.4418 187.394ZM39.01 194.899C39.01 197.8 39.711 200.794 41.969 202.933L47.471 197.126C47.449 197.105 47.01 196.679 47.01 194.899L39.01 194.899ZM42.0528 203.01C43.8824 204.647 46.1431 205.565 48.5831 205.958L49.8569 198.06C48.5769 197.854 47.8376 197.451 47.3872 197.048L42.0528 203.01ZM48.7081 205.977C50.7653 206.242 52.9789 206.369 55.34 206.369L55.34 198.369C53.261 198.369 51.3947 198.257 49.7319 198.042L48.7081 205.977ZM55.34 206.369L85.85 206.369L85.85 198.369L55.34 198.369L55.34 206.369ZM85.85 206.369C88.5778 206.369 91.0767 206.143 93.301 205.641L91.539 197.838C90.0433 198.175 88.1622 198.369 85.85 198.369L85.85 206.369ZM93.301 205.641C95.7704 205.084 98.0226 203.965 99.721 202.067L93.759 196.732C93.4173 197.114 92.7896 197.555 91.539 197.838L93.301 205.641ZM99.7996 201.976C101.574 199.869 102.18 197.201 102.18 194.539L94.18 194.539C94.18 196.078 93.826 196.65 93.6803 196.823L99.7996 201.976ZM102.18 194.539C102.18 191.745 101.476 188.963 99.4638 186.838L93.6562 192.34C93.8037 192.496 94.18 193.014 94.18 194.539L102.18 194.539ZM99.4638 186.838C97.7077 184.985 95.4205 183.89 92.9148 183.342L91.2052 191.157C92.5395 191.449 93.2523 191.914 93.6562 192.34L99.4638 186.838ZM93.0301 183.369C90.7076 182.788 88.0856 182.529 85.22 182.529L85.22 190.529C87.6344 190.529 89.5724 190.751 91.0899 191.13L93.0301 183.369ZM85.22 182.529L78.38 182.529L78.38 190.529L85.22 190.529L85.22 182.529ZM74.38 186.529L74.38 194.359L82.38 194.359L82.38 186.529L74.38 186.529ZM78.38 190.359L70.01 190.359L70.01 198.359L78.38 198.359L78.38 190.359ZM74.01 194.359L74.01 174.559L66.01 174.559L66.01 194.359L74.01 194.359ZM70.01 178.559L107 178.559L107 170.559L70.01 170.559L70.01 178.559ZM103 174.559L103 183.109L111 183.109L111 174.559L103 174.559ZM106.455 179.147L99.2551 180.137L100.345 188.062L107.545 187.072L106.455 179.147ZM98.3144 187.813C100.081 188.52 101.483 189.57 102.598 190.985L108.882 186.034C106.877 183.489 104.319 181.599 101.286 180.386L98.3144 187.813ZM102.588 190.972C103.363 191.965 103.99 193.628 103.99 196.429L111.99 196.429C111.99 192.511 111.117 188.894 108.892 186.047L102.588 190.972ZM107 168.116L106.216 172.038L111 172.995L111 168.116L107 168.116ZM34.1 153.536L30.1 153.536L30.1 156.815L33.3155 157.458L34.1 153.536ZM34.1 139.316L33.3155 135.394L30.1 136.037L30.1 139.316L34.1 139.316ZM107 124.736L111 124.736L111 119.857L106.216 120.814L107 124.736ZM107 137.066L107.675 141.009L111 140.44L111 137.066L107 137.066ZM90.17 139.946L89.4953 136.003L86.17 136.572L86.17 139.946L90.17 139.946ZM90.17 152.636L86.17 152.636L86.17 155.992L89.4749 156.575L90.17 152.636ZM107 155.606L111 155.606L111 152.25L107.695 151.667L107 155.606ZM81.71 151.286L81.0712 155.235L85.71 155.985L85.71 151.286L81.71 151.286ZM81.71 141.386L85.71 141.386L85.71 136.687L81.0712 137.437L81.71 141.386ZM51.11 146.336L50.4712 142.387L50.4712 150.285L51.11 146.336ZM107.784 164.194L34.8845 149.614L33.3155 157.458L106.216 172.038L107.784 164.194ZM38.1 153.536L38.1 139.316L30.1 139.316L30.1 153.536L38.1 153.536ZM34.8845 143.238L107.784 128.658L106.216 120.814L33.3155 135.394L34.8845 143.238ZM103 124.736L103 137.066L111 137.066L111 124.736L103 124.736ZM106.325 133.123L89.4953 136.003L90.8447 143.889L107.675 141.009L106.325 133.123ZM86.17 139.946L86.17 152.636L94.17 152.636L94.17 139.946L86.17 139.946ZM89.4749 156.575L106.305 159.545L107.695 151.667L90.8651 148.697L89.4749 156.575ZM103 155.606L103 168.116L111 168.116L111 155.606L103 155.606ZM85.71 151.286L85.71 141.386L77.71 141.386L77.71 151.286L85.71 151.286ZM81.0712 137.437L50.4712 142.387L51.7487 150.285L82.3487 145.335L81.0712 137.437ZM50.4712 150.285L81.0712 155.235L82.3487 147.337L51.7487 142.387L50.4712 150.285ZM107 117.405L107 121.405L111 121.405L111 117.405L107 117.405ZM34.1 117.405L30.1 117.405L30.1 121.405L34.1 121.405L34.1 117.405ZM34.1 108.135L32.531 104.455L30.1 105.492L30.1 108.135L34.1 108.135ZM75.68 90.4045L77.2489 94.084L75.68 86.4045L75.68 90.4045ZM34.1 90.4045L30.1 90.4045L30.1 94.4045L34.1 94.4045L34.1 90.4045ZM34.1 79.4245L34.1 75.4245L30.1 75.4245L30.1 79.4245L34.1 79.4245ZM107 79.4245L111 79.4245L111 75.4245L107 75.4245L107 79.4245ZM107 88.2445L108.515 91.9467L111 90.9299L111 88.2445L107 88.2445ZM63.44 106.065L61.9255 102.362L63.44 110.065L63.44 106.065ZM107 106.065L111 106.065L111 102.065L107 102.065L107 106.065ZM107 113.405L34.1 113.405L34.1 121.405L107 121.405L107 113.405ZM38.1 117.405L38.1 108.135L30.1 108.135L30.1 117.405L38.1 117.405ZM35.6689 111.814L77.2489 94.084L74.111 86.7251L32.531 104.455L35.6689 111.814ZM75.68 86.4045L34.1 86.4045L34.1 94.4045L75.68 94.4045L75.68 86.4045ZM38.1 90.4045L38.1 79.4245L30.1 79.4245L30.1 90.4045L38.1 90.4045ZM34.1 83.4245L107 83.4245L107 75.4245L34.1 75.4245L34.1 83.4245ZM103 79.4245L103 88.2445L111 88.2445L111 79.4245L103 79.4245ZM105.485 84.5423L61.9255 102.362L64.9545 109.767L108.515 91.9467L105.485 84.5423ZM63.44 110.065L107 110.065L107 102.065L63.44 102.065L63.44 110.065ZM103 106.065L103 117.405L111 117.405L111 106.065L103 106.065ZM107 68.0016L107 72.0016L111 72.0016L111 68.0016L107 68.0016ZM34.1 68.0016L30.1 68.0016L30.1 72.0016L34.1 72.0016L34.1 68.0016ZM34.1 54.8616L34.1 50.8616L30.1 50.8616L30.1 54.8616L34.1 54.8616ZM107 54.8616L111 54.8616L111 50.8616L107 50.8616L107 54.8616ZM107 64.0016L34.1 64.0016L34.1 72.0016L107 72.0016L107 64.0016ZM38.1 68.0016L38.1 54.8616L30.1 54.8616L30.1 68.0016L38.1 68.0016ZM34.1 58.8616L107 58.8616L107 50.8616L34.1 50.8616L34.1 58.8616ZM103 54.8616L103 68.0016L111 68.0016L111 54.8616L103 54.8616ZM104.84 36.5564L108.117 38.8502L108.128 38.8351L108.138 38.8198L104.84 36.5564ZM96.29 42.8564L97.5362 46.6573L97.5456 46.6543L97.5549 46.6511L96.29 42.8564ZM44.72 42.8564L45.9662 39.0555L45.9662 39.0555L44.72 42.8564ZM36.26 36.5564L32.9017 38.7294L32.9116 38.7446L32.9215 38.7598L36.26 36.5564ZM35.9 12.1664L39.3041 14.2668L39.3301 14.2247L39.3551 14.1819L35.9 12.1664ZM43.19 6.0464L44.6022 9.78881L44.6022 9.78881L43.19 6.0464ZM60.38 4.2464L64.38 4.2464L64.38 0.246401L60.38 0.246401L60.38 4.2464ZM60.38 17.0264L60.38 21.0264L64.38 21.0264L64.38 17.0264L60.38 17.0264ZM48.5 17.3864L48.9261 21.3636L48.996 21.3561L49.0657 21.3462L48.5 17.3864ZM44.54 19.0964L47.1865 22.0958L47.2801 22.0131L47.3684 21.9248L44.54 19.0964ZM44.63 28.9064L47.4584 26.078L47.4584 26.078L44.63 28.9064ZM48.86 30.8864L49.5396 26.9446L49.5286 26.9427L49.5176 26.9408L48.86 30.8864ZM93.05 30.7064L93.9885 34.5947L94.0044 34.5909L94.0201 34.587L93.05 30.7064ZM96.92 28.4564L99.9929 31.0171L100.069 30.9254L100.14 30.8292L96.92 28.4564ZM96.65 19.1864L93.9925 22.176L93.998 22.1809L94.0035 22.1858L96.65 19.1864ZM92.42 17.3864L92.9665 13.4239L92.9665 13.4239L92.42 17.3864ZM80 17.0264L76 17.0264L76 21.0264L80 21.0264L80 17.0264ZM80 4.2464L80 0.2464L76 0.246401L76 4.2464L80 4.2464ZM97.37 5.9564L98.6761 2.17564L98.6656 2.17203L98.6552 2.16848L97.37 5.9564ZM105.2 11.9864L108.539 9.78402L108.534 9.7758L108.528 9.7676L105.2 11.9864ZM103.99 23.9564C103.99 28.8275 103.024 32.1327 101.542 34.293L108.138 38.8198C110.855 34.8601 111.99 29.7653 111.99 23.9564L103.99 23.9564ZM101.563 34.2626C99.9741 36.5325 97.8424 38.1226 95.0251 39.0617L97.5549 46.6511C101.938 45.1902 105.506 42.5803 108.117 38.8502L101.563 34.2626ZM95.0438 39.0555C91.8664 40.0972 88.1005 40.6564 83.69 40.6564L83.69 48.6564C88.7595 48.6564 93.3936 48.0156 97.5362 46.6573L95.0438 39.0555ZM83.69 40.6564L57.68 40.6564L57.68 48.6564L83.69 48.6564L83.69 40.6564ZM57.68 40.6564C53.0061 40.6564 49.1259 40.0915 45.9662 39.0555L43.4738 46.6573C47.6341 48.0213 52.3939 48.6564 57.68 48.6564L57.68 40.6564ZM45.9662 39.0555C43.0982 38.1151 41.0444 36.544 39.5984 34.353L32.9215 38.7598C35.4355 42.5688 39.0218 45.1977 43.4738 46.6573L45.9662 39.0555ZM39.6183 34.3834C38.2094 32.206 37.29 28.8639 37.29 23.9564L29.29 23.9564C29.29 29.7289 30.3506 34.7868 32.9017 38.7294L39.6183 34.3834ZM37.29 23.9564C37.29 19.3003 38.1065 16.2079 39.3041 14.2668L32.4958 10.066C30.2135 13.7649 29.29 18.5325 29.29 23.9564L37.29 23.9564ZM39.3551 14.1819C40.5628 12.1115 42.263 10.6715 44.6022 9.78881L41.7778 2.304C37.7569 3.82129 34.5971 6.46131 32.4449 10.1509L39.3551 14.1819ZM44.6022 9.78881C47.2385 8.79399 50.4327 8.2464 54.26 8.2464L54.26 0.246402C49.6873 0.246402 45.5015 0.898812 41.7778 2.304L44.6022 9.78881ZM54.26 8.2464L60.38 8.2464L60.38 0.246401L54.26 0.246402L54.26 8.2464ZM56.38 4.2464L56.38 17.0264L64.38 17.0264L64.38 4.2464L56.38 4.2464ZM60.38 13.0264L54.08 13.0264L54.08 21.0264L60.38 21.0264L60.38 13.0264ZM54.08 13.0264C51.8872 13.0264 49.8346 13.1551 47.9343 13.4266L49.0657 21.3462C50.5254 21.1377 52.1928 21.0264 54.08 21.0264L54.08 13.0264ZM48.0738 13.4092C45.7132 13.6621 43.4629 14.5166 41.7116 16.268L47.3684 21.9248C47.537 21.7562 47.9267 21.4707 48.9261 21.3636L48.0738 13.4092ZM41.8935 16.097C39.5785 18.1397 39.01 21.185 39.01 23.8664L47.01 23.8664C47.01 23.0006 47.1098 22.4711 47.2013 22.1856C47.2861 21.9214 47.3277 21.9711 47.1865 22.0958L41.8935 16.097ZM39.01 23.8664C39.01 26.6897 39.6712 29.6044 41.8016 31.7348L47.4584 26.078C47.4288 26.0484 47.01 25.6031 47.01 23.8664L39.01 23.8664ZM41.8016 31.7348C43.5508 33.4841 45.7992 34.4314 48.2024 34.832L49.5176 26.9408C48.3208 26.7414 47.7492 26.3687 47.4584 26.078L41.8016 31.7348ZM48.1804 34.8282C50.1934 35.1753 52.4074 35.3364 54.8 35.3364L54.8 27.3364C52.7526 27.3364 51.0066 27.1975 49.5396 26.9446L48.1804 34.8282ZM54.8 35.3364L86.48 35.3364L86.48 27.3364L54.8 27.3364L54.8 35.3364ZM86.48 35.3364C89.3018 35.3364 91.8335 35.1149 93.9885 34.5947L92.1114 26.8181C90.7865 27.1379 88.9382 27.3364 86.48 27.3364L86.48 35.3364ZM94.0201 34.587C96.3293 34.0097 98.4343 32.8874 99.9929 31.0171L93.8471 25.8957C93.6057 26.1854 93.1307 26.5631 92.0798 26.8258L94.0201 34.587ZM100.14 30.8292C101.639 28.7946 102.18 26.3409 102.18 23.8664L94.18 23.8664C94.18 25.2319 93.8806 25.8382 93.6998 26.0836L100.14 30.8292ZM102.18 23.8664C102.18 21.2045 101.593 18.2135 99.2965 16.1871L94.0035 22.1858C93.8779 22.0749 93.9163 22.0322 93.9955 22.2744C94.0823 22.5397 94.18 23.04 94.18 23.8664L102.18 23.8664ZM99.3074 16.1968C97.5186 14.6067 95.32 13.7485 92.9665 13.4239L91.8734 21.3489C93 21.5043 93.6214 21.8461 93.9925 22.176L99.3074 16.1968ZM92.9665 13.4239C91.0099 13.154 88.8731 13.0264 86.57 13.0264L86.57 21.0264C88.5869 21.0264 90.3501 21.1388 91.8734 21.3489L92.9665 13.4239ZM86.57 13.0264L80 13.0264L80 21.0264L86.57 21.0264L86.57 13.0264ZM84 17.0264L84 4.2464L76 4.2464L76 17.0264L84 17.0264ZM80 8.2464L85.85 8.2464L85.85 0.2464L80 0.2464L80 8.2464ZM85.85 8.2464C89.8247 8.2464 93.2175 8.77149 96.0848 9.74431L98.6552 2.16848C94.8024 0.861311 90.5153 0.2464 85.85 0.2464L85.85 8.2464ZM96.0639 9.73716C98.545 10.5943 100.441 12.0597 101.872 14.2052L108.528 9.7676C106.119 6.15307 102.795 3.59854 98.6761 2.17564L96.0639 9.73716ZM101.861 14.1888C103.118 16.0949 103.99 19.1951 103.99 23.9564L111.99 23.9564C111.99 18.3977 111.002 13.5179 108.539 9.78402L101.861 14.1888Z" fill="#76A713" fill-opacity="0.2"/>
</svg>
