<svg width="14" height="13" viewBox="0 0 14 13" fill="none" xmlns="http://www.w3.org/2000/svg">
<path d="M10.8912 8.08682C10.714 8.25855 10.6325 8.5069 10.6729 8.75046L11.2811 12.1166C11.3324 12.4019 11.212 12.6906 10.9733 12.8555C10.7393 13.0265 10.428 13.047 10.1728 12.9102L7.14261 11.3298C7.03725 11.2737 6.92026 11.2436 6.80053 11.2401H6.61512C6.55081 11.2497 6.48786 11.2702 6.43039 11.3017L3.39953 12.8897C3.2497 12.9649 3.08003 12.9916 2.91378 12.9649C2.50875 12.8883 2.2385 12.5024 2.30487 12.0953L2.91378 8.72925C2.95414 8.48364 2.87273 8.23392 2.69553 8.05946L0.225005 5.66488C0.0183874 5.46442 -0.0534499 5.16338 0.040965 4.89178C0.132643 4.62085 0.366628 4.42313 0.649188 4.37866L4.04949 3.88538C4.30811 3.85869 4.53525 3.70134 4.65156 3.46872L6.14989 0.396816C6.18546 0.3284 6.2313 0.265456 6.28672 0.212091L6.34829 0.1642C6.38045 0.128623 6.41739 0.0992041 6.45844 0.0752583L6.53302 0.0478917L6.64933 0H6.93736C7.19461 0.0266825 7.42106 0.18062 7.53943 0.410499L9.05759 3.46872C9.16706 3.69244 9.37983 3.84775 9.62545 3.88538L13.0258 4.37866C13.3131 4.41971 13.5532 4.61812 13.6483 4.89178C13.738 5.16612 13.6607 5.46715 13.4499 5.66488L10.8912 8.08682Z" fill="#FF9900"/>
</svg>
