<svg width="15" height="13" viewBox="0 0 15 13" fill="none" xmlns="http://www.w3.org/2000/svg">
<path d="M11.2877 7.72369L11.2877 7.72367L11.2834 7.72777C10.9879 8.01418 10.8528 8.42748 10.9199 8.83221L10.9198 8.83222L10.9211 8.83937L11.5293 12.2051C11.5458 12.2968 11.5072 12.3903 11.4294 12.444L11.4293 12.4439L11.4184 12.4518C11.3409 12.5085 11.2363 12.5162 11.1493 12.4695L11.1493 12.4695L11.1442 12.4669L8.11568 10.8873C7.94054 10.7945 7.74845 10.7459 7.55504 10.7403L7.5479 10.7401H7.54076H7.35535H7.31832L7.28169 10.7456C7.16365 10.7632 7.04564 10.8009 6.93523 10.8606L3.91241 12.4443C3.85857 12.4706 3.79882 12.4803 3.74027 12.4723C3.60665 12.4434 3.51758 12.3151 3.53809 12.179L4.14603 8.81826L4.14609 8.81827L4.14739 8.81034C4.21409 8.4045 4.07957 7.99165 3.78655 7.70316L3.78656 7.70315L3.78375 7.70043L1.31341 5.30602C1.24583 5.24046 1.22313 5.14326 1.25348 5.05596L1.25482 5.05205C1.28681 4.9575 1.36768 4.88907 1.46496 4.87293L4.85258 4.38149C5.27688 4.33377 5.64813 4.07408 5.839 3.69233L5.83903 3.69234L5.84118 3.68791L7.33596 0.623285C7.34418 0.608153 7.353 0.595479 7.36175 0.585124L7.3955 0.558876L7.43008 0.531976L7.4423 0.51846L7.44551 0.517283L7.45464 0.513933L7.46363 0.510231L7.48847 0.5H7.6451C7.72636 0.51432 7.79583 0.564937 7.83386 0.636961L9.3487 3.68847C9.34896 3.68899 9.34921 3.68951 9.34947 3.69003C9.53166 4.06109 9.88416 4.31744 10.29 4.37961L10.29 4.37963L10.2939 4.3802L13.6942 4.87348L13.6953 4.87363C13.7954 4.88794 13.8798 4.95643 13.9147 5.05142C13.9417 5.13972 13.9164 5.23608 13.848 5.30025L13.8465 5.30175L11.2877 7.72369Z" stroke="#FF9900"/>
</svg>
