<svg width="15" height="13" viewBox="0 0 15 13" fill="none" xmlns="http://www.w3.org/2000/svg">
<path d="M11.5762 8.08682C11.399 8.25855 11.3176 8.5069 11.358 8.75046L11.9662 12.1166C12.0175 12.4019 11.8971 12.6906 11.6583 12.8555C11.4243 13.0265 11.113 13.047 10.8578 12.9102L7.82767 11.3298C7.72231 11.2737 7.60531 11.2436 7.48559 11.2401H7.30018C7.23587 11.2497 7.17292 11.2702 7.11545 11.3017L4.08459 12.8897C3.93476 12.9649 3.76509 12.9916 3.59883 12.9649C3.19381 12.8883 2.92356 12.5024 2.98993 12.0953L3.59883 8.72925C3.6392 8.48364 3.55778 8.23392 3.38059 8.05946L0.910064 5.66488C0.703446 5.46442 0.631609 5.16338 0.726024 4.89178C0.817702 4.62085 1.05169 4.42313 1.33425 4.37866L4.73455 3.88538C4.99316 3.85869 5.22031 3.70134 5.33662 3.46872L6.83494 0.396816C6.87052 0.3284 6.91636 0.265456 6.97178 0.212091L7.03335 0.1642C7.06551 0.128623 7.10245 0.0992041 7.1435 0.0752583L7.21808 0.0478917L7.33438 0H7.62242C7.87966 0.0266825 8.10612 0.18062 8.22448 0.410499L9.74265 3.46872C9.85211 3.69244 10.0649 3.84775 10.3105 3.88538L13.7108 4.37866C13.9982 4.41971 14.2383 4.61812 14.3334 4.89178C14.423 5.16612 14.3457 5.46715 14.135 5.66488L11.5762 8.08682Z" fill="#FF9900"/>
</svg>
