<svg width="16" height="15" viewBox="0 0 16 15" fill="none" xmlns="http://www.w3.org/2000/svg">
<path d="M3.33315 1.66741C3.33293 2.10941 3.15713 2.53322 2.84443 2.84561C2.53173 3.158 2.10774 3.33337 1.66574 3.33315C1.22374 3.33293 0.799926 3.15713 0.487539 2.84443C0.175152 2.53173 -0.000220793 2.10774 2.08623e-07 1.66574C0.00022121 1.22374 0.176018 0.799926 0.488718 0.487539C0.801417 0.175152 1.2254 -0.000220793 1.66741 2.08623e-07C2.10941 0.00022121 2.53322 0.176018 2.84561 0.488718C3.158 0.801417 3.33337 1.2254 3.33315 1.66741ZM3.38315 4.56725H0.0499974V15H3.38315V4.56725ZM8.64952 4.56725H5.33304V15H8.61619V9.5253C8.61619 6.47547 12.591 6.19216 12.591 9.5253V15H15.8825V8.39203C15.8825 3.25065 9.99944 3.44231 8.61619 5.96717L8.64952 4.56725Z" fill="#CCCCCC"/>
</svg>
