<svg width="13" height="15" viewBox="0 0 13 15" fill="none" xmlns="http://www.w3.org/2000/svg">
<path fill-rule="evenodd" clip-rule="evenodd" d="M0 6.23836C0 2.78842 2.88291 0 6.37006 0C9.86708 0 12.75 2.78842 12.75 6.23836C12.75 7.97678 12.1178 9.59071 11.0771 10.9587C9.92911 12.4676 8.51416 13.7824 6.92138 14.8143C6.55688 15.0528 6.22793 15.0708 5.82781 14.8143C4.22606 13.7824 2.81107 12.4676 1.67288 10.9587C0.631486 9.59071 0 7.97678 0 6.23836ZM4.27068 6.43261C4.27068 7.58828 5.21378 8.49728 6.37006 8.49728C7.52716 8.49728 8.47936 7.58828 8.47936 6.43261C8.47936 5.28586 7.52716 4.33263 6.37006 4.33263C5.21378 4.33263 4.27068 5.28586 4.27068 6.43261Z" fill="#76A713"/>
</svg>
