<svg width="15" height="10" viewBox="0 0 15 10" fill="none" xmlns="http://www.w3.org/2000/svg">
<path fill-rule="evenodd" clip-rule="evenodd" d="M6.52917 5.0055L6.5305 5.30058C6.54058 6.471 6.61117 7.51525 6.73283 8.177C6.73283 8.18892 6.86558 8.84525 6.95008 9.06367C7.08283 9.3795 7.32283 9.6475 7.62375 9.81733C7.86467 9.9385 8.11733 10 8.38192 10C8.58983 9.99033 8.93283 9.88575 9.17758 9.798L9.381 9.72C10.7282 9.18483 13.3037 7.43617 14.29 6.36683L14.3628 6.29208L14.6873 5.94183C14.8918 5.67375 15 5.34608 15 4.99358C15 4.67783 14.9037 4.362 14.7109 4.10683C14.6532 4.02417 14.5602 3.91808 14.4776 3.8285L14.1617 3.49783C13.0746 2.39643 10.721 0.851525 9.501 0.339633C9.501 0.328625 8.74283 0.0119333 8.38192 0H8.33375C7.78008 0 7.26283 0.315767 6.99825 0.826142C6.926 0.965667 6.85667 1.23898 6.804 1.47902L6.70917 1.93226C6.601 2.6611 6.52917 3.77917 6.52917 5.0055ZM1.25271 3.73475C0.5609 3.73475 0 4.30108 0 4.99967C0 5.69817 0.5609 6.26458 1.25271 6.26458L4.3354 5.99192C4.87813 5.99192 5.31812 5.54858 5.31812 4.99967C5.31812 4.45158 4.87813 4.00733 4.3354 4.00733L1.25271 3.73475Z" fill="#76A713"/>
</svg>
