<svg width="15" height="11" viewBox="0 0 15 11" fill="none" xmlns="http://www.w3.org/2000/svg">
<path d="M4.30386 9.03142C3.89369 9.2711 3.45363 9.45785 2.99413 9.5864C2.63416 9.68711 2.26587 9.75108 1.89485 9.77791C2.19451 9.92153 2.5031 10.0444 2.81842 10.146M4.30386 9.03142L13.7605 2.05045C13.5193 2.30509 13.2545 2.53718 12.9691 2.74342C12.9744 2.86156 12.9778 2.98236 12.9778 3.10182C12.9778 6.77016 10.1855 11 5.07959 11C3.94262 11.0011 2.82356 10.7552 1.79805 10.2847C2.14106 10.2675 2.48242 10.2212 2.81842 10.146M4.30386 9.03142C4.50711 9.07466 4.71504 9.09869 4.92496 9.10258L4.93424 8.60267L4.62541 8.20944C4.49528 8.31164 4.36047 8.40723 4.2215 8.49592C3.90151 8.40434 3.59868 8.25545 3.32845 8.05452C3.02186 7.82656 2.76734 7.53914 2.57874 7.21164C2.77787 7.22899 2.97801 7.22817 3.17669 7.20926M4.30386 9.03142L1.39134 1.90714C1.39134 2.53895 1.60245 3.12241 1.95819 3.58954C2.17732 3.66693 2.40779 3.71041 2.64158 3.71777L2.62585 4.21752L2.34798 4.63321C2.18764 4.52602 2.03727 4.40495 1.89859 4.27172C1.91897 4.39635 1.94963 4.51884 1.99015 4.63793M2.81842 10.146C3.54522 10.3801 4.30777 10.5007 5.07912 10.5L5.07959 10.5C9.85197 10.5 12.4778 6.55516 12.4778 3.10182C12.4778 2.9914 12.4747 2.87827 12.4696 2.76587L12.4575 2.49627L12.6762 2.33818C12.7236 2.30396 12.7703 2.26896 12.8164 2.23319L12.5082 1.32943C12.444 1.34429 12.3794 1.35812 12.3147 1.37091L12.0422 1.42471L11.8525 1.22179C11.51 0.855348 11.0561 0.612321 10.5612 0.530492C10.0664 0.448663 9.55834 0.532618 9.11612 0.769303C8.6739 1.00599 8.32227 1.38214 8.11589 1.83929C7.90951 2.29644 7.85994 2.80896 7.97489 3.29719L8.12729 3.94444L7.46317 3.91115C6.28947 3.85232 5.14125 3.54732 4.09308 3.01593C3.29393 2.6108 2.56655 2.08097 1.93754 1.44793C1.90673 1.59818 1.89112 1.75178 1.89134 1.90644L1.89134 1.90714C1.89134 2.69608 2.29234 3.39318 2.90371 3.80184L4.3554 4.77222L2.61011 4.71728C2.40068 4.71068 2.19311 4.68398 1.99015 4.63793M2.81842 10.146C2.92244 10.1227 3.02595 10.0967 3.12884 10.0679C3.89717 9.85297 4.61561 9.48868 5.24306 8.99589L6.3471 8.12881L4.94352 8.10276C4.46847 8.09394 4.00807 7.93677 3.62678 7.65328C3.45582 7.52615 3.30459 7.37649 3.17669 7.20926M3.17669 7.20926C3.36184 7.19165 3.54572 7.15833 3.72631 7.10939L3.69469 6.13673C3.17956 6.0325 2.71633 5.75332 2.38354 5.34653C2.20982 5.13419 2.07723 4.89389 1.99015 4.63793M3.17669 7.20926C3.12167 7.13733 3.07097 7.06215 3.02486 6.98412C3.17773 7.03979 3.33528 7.08427 3.49637 7.11687L3.59553 6.6268L3.46475 6.14421C3.18101 6.2211 2.88564 6.24261 2.59471 6.20814C2.37137 6.05771 2.16951 5.87455 1.99655 5.66313C1.70811 5.31056 1.51264 4.89481 1.42364 4.45369C1.60665 4.53231 1.79629 4.59395 1.99015 4.63793" fill="#CCCCCC" stroke="#CCCCCC"/>
</svg>
