<svg width="16" height="16" viewBox="0 0 16 16" fill="none" xmlns="http://www.w3.org/2000/svg">
<path fill-rule="evenodd" clip-rule="evenodd" d="M6.71997 1H3.04805C1.91694 1 1 1.91694 1 3.04805V6.71997C1 6.99156 1.10789 7.25202 1.29993 7.44407L8.25601 14.4001C9.05582 15.2 10.3526 15.2 11.1524 14.4001L14.4001 11.1524C15.2 10.3526 15.2 9.05582 14.4001 8.25601L7.44407 1.29993C7.25202 1.10789 6.99156 1 6.71997 1Z" fill="#76A713" stroke="#76A713" stroke-linecap="round" stroke-linejoin="round"/>
<path d="M2.53594 3.56003C2.53594 2.99448 2.99441 2.53601 3.55996 2.53601C4.12551 2.53601 4.58398 2.99448 4.58398 3.56003C4.58398 4.12559 4.12551 4.58406 3.55996 4.58406C2.99441 4.58406 2.53594 4.12559 2.53594 3.56003Z" fill="white"/>
</svg>
