<svg width="13" height="14" viewBox="0 0 13 14" fill="none" xmlns="http://www.w3.org/2000/svg">
<path fill-rule="evenodd" clip-rule="evenodd" d="M9.38762 0.538035L9.38832 1.06277C11.3165 1.21389 12.5903 2.52783 12.5924 4.54282L12.6 10.4408C12.6027 12.6378 11.2225 13.9895 9.01025 13.993L3.60631 14C1.40783 14.0028 0.0103716 12.6189 0.00760663 10.4156L4.65644e-06 4.5869C-0.00276034 2.55862 1.22607 1.24818 3.15432 1.07117L3.15362 0.546428C3.15294 0.238583 3.381 0.00700158 3.6851 0.00700158C3.9892 0.00630158 4.21727 0.237182 4.21797 0.545028L4.21866 1.03478L8.32397 1.02919L8.32327 0.539435C8.32257 0.23159 8.55063 0.000701587 8.85478 1.5874e-06C9.15193 -0.000698412 9.38692 0.23019 9.38762 0.538035ZM1.06503 4.8031L11.5287 4.78911V4.54422C11.499 3.03998 10.7443 2.25077 9.38965 2.13324L9.39035 2.67196C9.39035 2.97282 9.15606 3.21139 8.85891 3.21139C8.55483 3.21209 8.326 2.97421 8.326 2.67336L8.32537 2.10665L4.22004 2.11224L4.22073 2.67826C4.22073 2.97981 3.99335 3.21769 3.68925 3.21769C3.38515 3.21839 3.15639 2.98121 3.15639 2.67966L3.1557 2.14093C1.808 2.27596 1.06227 3.06797 1.06434 4.5855L1.06503 4.8031ZM8.56792 7.98301V7.99071C8.57485 8.31257 8.83749 8.55673 9.15606 8.54973C9.46707 8.54203 9.71522 8.27547 9.70829 7.95361C9.6938 7.64575 9.44425 7.39459 9.13394 7.39529C8.81607 7.40229 8.56722 7.66115 8.56792 7.98301ZM9.13877 11.1244C8.8209 11.1174 8.56449 10.8522 8.56379 10.5304C8.55686 10.2086 8.81187 9.94203 9.12981 9.93433H9.13674C9.46154 9.93433 9.72488 10.1995 9.72488 10.5283C9.72558 10.8571 9.46294 11.1237 9.13877 11.1244ZM5.72047 7.99421C5.73433 8.31607 5.99759 8.56723 6.31553 8.55323C6.62654 8.53853 6.87469 8.27267 6.86083 7.95081C6.8532 7.63595 6.59749 7.39109 6.28648 7.39179C5.96862 7.40579 5.71977 7.67235 5.72047 7.99421ZM6.31834 11.093C6.0004 11.107 5.73776 10.8557 5.72327 10.5339C5.72327 10.2121 5.97135 9.94623 6.28929 9.93153C6.6003 9.93083 6.8567 10.1757 6.86363 10.4898C6.87812 10.8124 6.62934 11.0783 6.31834 11.093ZM2.87303 8.01871C2.88685 8.3405 3.15017 8.59243 3.46809 8.57773C3.7791 8.56373 4.02722 8.29717 4.0127 7.97531C4.00579 7.66045 3.75007 7.41559 3.43837 7.41629C3.12045 7.43029 2.87233 7.69685 2.87303 8.01871ZM3.47086 11.0965C3.15294 11.1112 2.8903 10.8592 2.87579 10.5374C2.8751 10.2156 3.12391 9.94903 3.44183 9.93503C3.75284 9.93433 4.00925 10.1792 4.01615 10.494C4.03067 10.8159 3.78255 11.0825 3.47086 11.0965Z" fill="#76A713"/>
</svg>
