<svg width="133" height="508" viewBox="0 0 133 508" fill="none" xmlns="http://www.w3.org/2000/svg">
<g filter="url(#filter0_d_134_1017)">
<path d="M107 488.22L107 492.22L111 492.22L111 488.22L107 488.22ZM43.91 488.22L43.91 484.22L39.91 484.22L39.91 488.22L43.91 488.22ZM43.91 499.83L43.91 503.83L47.91 503.83L47.91 499.83L43.91 499.83ZM34.1 499.83L30.1 499.83L30.1 503.83L34.1 503.83L34.1 499.83ZM34.1 463.47L34.1 459.47L30.1 459.47L30.1 463.47L34.1 463.47ZM43.91 463.47L47.91 463.47L47.91 459.47L43.91 459.47L43.91 463.47ZM43.91 474.9L39.91 474.9L39.91 478.9L43.91 478.9L43.91 474.9ZM107 474.9L111 474.9L111 470.9L107 470.9L107 474.9ZM107 484.22L43.91 484.22L43.91 492.22L107 492.22L107 484.22ZM39.91 488.22L39.91 499.83L47.91 499.83L47.91 488.22L39.91 488.22ZM43.91 495.83L34.1 495.83L34.1 503.83L43.91 503.83L43.91 495.83ZM38.1 499.83L38.1 463.47L30.1 463.47L30.1 499.83L38.1 499.83ZM34.1 467.47L43.91 467.47L43.91 459.47L34.1 459.47L34.1 467.47ZM39.91 463.47L39.91 474.9L47.91 474.9L47.91 463.47L39.91 463.47ZM43.91 478.9L107 478.9L107 470.9L43.91 470.9L43.91 478.9ZM103 474.9L103 488.22L111 488.22L111 474.9L103 474.9ZM107 456.838L107 460.838L111 460.838L111 456.838L107 456.838ZM34.1 456.838L30.1 456.838L30.1 460.838L34.1 460.838L34.1 456.838ZM34.1 426.238L34.1 422.238L30.1 422.238L30.1 426.238L34.1 426.238ZM43.46 426.238L47.46 426.238L47.46 422.238L43.46 422.238L43.46 426.238ZM43.46 443.518L39.46 443.518L39.46 447.518L43.46 447.518L43.46 443.518ZM64.43 443.518L64.43 447.518L68.43 447.518L68.43 443.518L64.43 443.518ZM64.43 429.928L64.43 425.928L60.43 425.928L60.43 429.928L64.43 429.928ZM73.7 429.928L77.7 429.928L77.7 425.928L73.7 425.928L73.7 429.928ZM73.7 443.518L69.7 443.518L69.7 447.518L73.7 447.518L73.7 443.518ZM97.82 443.518L97.82 447.518L101.82 447.518L101.82 443.518L97.82 443.518ZM97.82 426.058L97.82 422.058L93.82 422.058L93.82 426.058L97.82 426.058ZM107 426.058L111 426.058L111 422.058L107 422.058L107 426.058ZM107 452.838L34.1 452.838L34.1 460.838L107 460.838L107 452.838ZM38.1 456.838L38.1 426.238L30.1 426.238L30.1 456.838L38.1 456.838ZM34.1 430.238L43.46 430.238L43.46 422.238L34.1 422.238L34.1 430.238ZM39.46 426.238L39.46 443.518L47.46 443.518L47.46 426.238L39.46 426.238ZM43.46 447.518L64.43 447.518L64.43 439.518L43.46 439.518L43.46 447.518ZM68.43 443.518L68.43 429.928L60.43 429.928L60.43 443.518L68.43 443.518ZM64.43 433.928L73.7 433.928L73.7 425.928L64.43 425.928L64.43 433.928ZM69.7 429.928L69.7 443.518L77.7 443.518L77.7 429.928L69.7 429.928ZM73.7 447.518L97.82 447.518L97.82 439.518L73.7 439.518L73.7 447.518ZM101.82 443.518L101.82 426.058L93.82 426.058L93.82 443.518L101.82 443.518ZM97.82 430.058L107 430.058L107 422.058L97.82 422.058L97.82 430.058ZM103 426.058L103 456.838L111 456.838L111 426.058L103 426.058ZM105.47 410.962L108.912 412.999L108.928 412.973L108.943 412.947L105.47 410.962ZM97.91 417.622L96.2548 413.981L96.2548 413.981L97.91 417.622ZM85.76 420.142L81.8353 420.915L82.4953 424.267L85.9099 424.139L85.76 420.142ZM83.51 408.712L83.3399 404.716L78.6855 404.914L79.5853 409.485L83.51 408.712ZM90.98 407.722L91.9501 411.603L92.0005 411.59L92.0506 411.576L90.98 407.722ZM96.02 405.112L98.775 408.012L98.8494 407.941L98.92 407.867L96.02 405.112ZM95.84 395.842L98.1649 392.587L98.1294 392.562L98.0933 392.537L95.84 395.842ZM83.06 396.652L85.3667 399.92L85.3667 399.92L83.06 396.652ZM76.94 402.412L79.9393 405.059L79.9638 405.031L79.9878 405.003L76.94 402.412ZM68.84 411.592L65.8406 408.946L65.8242 408.964L65.808 408.983L68.84 411.592ZM61.46 417.802L63.37 421.317L63.4159 421.292L63.4611 421.265L61.46 417.802ZM37.97 415.012L40.9012 412.29L40.9012 412.29L37.97 415.012ZM34.91 392.692L38.5249 394.404L38.5435 394.365L38.5613 394.325L34.91 392.692ZM39.23 387.292L41.545 390.554L41.5794 390.53L41.6134 390.504L39.23 387.292ZM45.62 384.232L46.6806 388.089L46.6932 388.085L46.7058 388.082L45.62 384.232ZM53.09 382.972L57.0304 382.284L56.4109 378.736L52.8179 378.981L53.09 382.972ZM55.07 394.312L55.2802 398.306L59.7865 398.069L59.0104 393.624L55.07 394.312ZM48.95 395.122L49.7345 399.044L49.7969 399.032L49.8589 399.017L48.95 395.122ZM44.72 397.192L47.4615 400.105L47.5056 400.063L47.5484 400.02L44.72 397.192ZM45.17 406.102L42.637 409.198L42.6451 409.204L42.6532 409.211L45.17 406.102ZM56.06 406.102L58.1912 409.487L58.2203 409.469L58.249 409.45L56.06 406.102ZM60.92 401.692L57.9189 399.047L57.9097 399.058L60.92 401.692ZM68.93 392.602L71.9311 395.247L71.9624 395.211L71.9928 395.175L68.93 392.602ZM77.84 384.952L79.933 388.361L79.9683 388.339L80.003 388.317L77.84 384.952ZM99.35 384.052L97.3489 387.515L97.378 387.532L97.4074 387.549L99.35 384.052ZM105.74 390.442L109.237 388.499L109.229 388.487L109.222 388.474L105.74 390.442ZM103.99 399.982C103.99 403.865 103.245 406.794 101.997 408.977L108.943 412.947C111.055 409.25 111.99 404.859 111.99 399.982L103.99 399.982ZM102.028 408.925C100.731 411.115 98.857 412.798 96.2548 413.981L99.5652 421.263C103.563 419.446 106.729 416.689 108.912 412.999L102.028 408.925ZM96.2548 413.981C93.5554 415.208 90.05 415.978 85.6101 416.145L85.9099 424.139C91.07 423.946 95.6646 423.037 99.5652 421.263L96.2548 413.981ZM89.6847 419.369L87.4347 407.939L79.5853 409.485L81.8353 420.915L89.6847 419.369ZM83.6801 412.708C86.702 412.58 89.4694 412.223 91.9501 411.603L90.0099 403.841C88.1706 404.301 85.958 404.604 83.3399 404.716L83.6801 412.708ZM92.0506 411.576C94.6281 410.86 96.9619 409.735 98.775 408.012L93.265 402.212C92.6781 402.77 91.6519 403.384 89.9094 403.868L92.0506 411.576ZM98.92 407.867C100.879 405.805 101.73 403.201 101.73 400.432L93.73 400.432C93.73 401.503 93.4412 402.019 93.12 402.357L98.92 407.867ZM101.73 400.432C101.73 397.529 100.855 394.508 98.1649 392.587L93.515 399.097C93.518 399.099 93.5171 399.099 93.5141 399.096C93.5111 399.093 93.5093 399.091 93.5095 399.091C93.5097 399.091 93.5142 399.097 93.5222 399.111C93.5304 399.125 93.5432 399.15 93.5588 399.188C93.6242 399.346 93.73 399.723 93.73 400.432L101.73 400.432ZM98.0933 392.537C95.9653 391.086 93.4802 390.492 90.89 390.492L90.89 398.492C92.2598 398.492 93.0747 398.798 93.5866 399.147L98.0933 392.537ZM90.89 390.492C87.1103 390.492 83.6321 391.352 80.7533 393.384L85.3667 399.92C86.5679 399.072 88.3097 398.492 90.89 398.492L90.89 390.492ZM80.7533 393.384C78.3783 395.061 76.096 397.229 73.8922 399.821L79.9878 405.003C81.864 402.795 83.6617 401.123 85.3667 399.92L80.7533 393.384ZM73.9406 399.766L65.8406 408.946L71.8393 414.239L79.9393 405.059L73.9406 399.766ZM65.808 408.983C63.8544 411.253 61.7356 413.023 59.4589 414.339L63.4611 421.265C66.5844 419.461 69.3856 417.091 71.872 414.201L65.808 408.983ZM59.5499 414.288C57.5177 415.392 54.8249 416.052 51.29 416.052L51.29 424.052C55.7951 424.052 59.8823 423.212 63.37 421.317L59.5499 414.288ZM51.29 416.052C46.3382 416.052 43.0796 414.636 40.9012 412.29L35.0388 417.734C39.1004 422.108 44.7218 424.052 51.29 424.052L51.29 416.052ZM40.9012 412.29C38.6389 409.854 37.29 406.335 37.29 401.242L29.29 401.242C29.29 407.789 31.0611 413.45 35.0388 417.734L40.9012 412.29ZM37.29 401.242C37.29 398.215 37.7719 395.994 38.5249 394.404L31.295 390.98C29.8881 393.95 29.29 397.429 29.29 401.242L37.29 401.242ZM38.5613 394.325C39.318 392.634 40.3225 391.422 41.545 390.554L36.915 384.03C34.4175 385.802 32.542 388.19 31.2587 391.059L38.5613 394.325ZM41.6134 390.504C43.0473 389.441 44.7217 388.628 46.6806 388.089L44.5594 380.375C41.7183 381.157 39.1327 382.383 36.8466 384.08L41.6134 390.504ZM46.7058 388.082C48.758 387.503 50.9735 387.126 53.3621 386.963L52.8179 378.981C49.9265 379.178 47.162 379.641 44.5342 380.382L46.7058 388.082ZM49.1496 383.66L51.1296 395L59.0104 393.624L57.0304 382.284L49.1496 383.66ZM54.8598 390.318C52.3968 390.447 50.1166 390.742 48.0411 391.227L49.8589 399.017C51.3834 398.662 53.1831 398.417 55.2802 398.306L54.8598 390.318ZM48.1655 391.2C45.8013 391.673 43.6044 392.651 41.8916 394.364L47.5484 400.02C47.8756 399.693 48.4987 399.292 49.7345 399.044L48.1655 391.2ZM41.9785 394.279C39.8925 396.243 39.19 398.911 39.19 401.512L47.19 401.512C47.19 400.895 47.2732 400.525 47.343 400.327C47.4051 400.152 47.4562 400.11 47.4615 400.105L41.9785 394.279ZM39.19 401.512C39.19 404.476 40.2334 407.231 42.637 409.198L47.7029 403.006C47.4666 402.813 47.19 402.508 47.19 401.512L39.19 401.512ZM42.6532 409.211C44.7511 410.909 47.2799 411.632 49.94 411.632L49.94 403.632C48.7601 403.632 48.1089 403.335 47.6868 402.993L42.6532 409.211ZM49.94 411.632C52.942 411.632 55.7746 411.009 58.1912 409.487L53.9287 402.717C53.1054 403.235 51.8579 403.632 49.94 403.632L49.94 411.632ZM58.249 409.45C60.2028 408.172 62.092 406.427 63.9303 404.326L57.9097 399.058C56.388 400.797 55.0372 401.992 53.871 402.754L58.249 409.45ZM63.9211 404.337L71.9311 395.247L65.9289 389.958L57.9189 399.048L63.9211 404.337ZM71.9928 395.175C74.2298 392.512 76.8701 390.241 79.933 388.361L75.7469 381.543C71.9699 383.863 68.6702 386.692 65.8672 390.029L71.9928 395.175ZM80.003 388.317C82.5978 386.649 85.8907 385.712 90.08 385.712L90.08 377.712C84.6693 377.712 79.8021 378.935 75.677 381.587L80.003 388.317ZM90.08 385.712C92.9408 385.712 95.3256 386.346 97.3489 387.515L101.351 380.589C97.9744 378.638 94.1792 377.712 90.08 377.712L90.08 385.712ZM97.4074 387.549C99.4455 388.681 101.05 390.274 102.258 392.41L109.222 388.474C107.31 385.09 104.654 382.423 101.293 380.555L97.4074 387.549ZM102.243 392.385C103.357 394.389 103.99 396.876 103.99 399.982L111.99 399.982C111.99 395.768 111.123 391.895 109.237 388.499L102.243 392.385ZM107 366.579L107 370.579L111 370.579L111 366.579L107 366.579ZM43.91 366.579L43.91 362.579L39.91 362.579L39.91 366.579L43.91 366.579ZM43.91 378.189L43.91 382.189L47.91 382.189L47.91 378.189L43.91 378.189ZM34.1 378.189L30.1 378.189L30.1 382.189L34.1 382.189L34.1 378.189ZM34.1 341.829L34.1 337.829L30.1 337.829L30.1 341.829L34.1 341.829ZM43.91 341.829L47.91 341.829L47.91 337.829L43.91 337.829L43.91 341.829ZM43.91 353.259L39.91 353.259L39.91 357.259L43.91 357.259L43.91 353.259ZM107 353.259L111 353.259L111 349.259L107 349.259L107 353.259ZM107 362.579L43.91 362.579L43.91 370.579L107 370.579L107 362.579ZM39.91 366.579L39.91 378.189L47.91 378.189L47.91 366.579L39.91 366.579ZM43.91 374.189L34.1 374.189L34.1 382.189L43.91 382.189L43.91 374.189ZM38.1 378.189L38.1 341.829L30.1 341.829L30.1 378.189L38.1 378.189ZM34.1 345.829L43.91 345.829L43.91 337.829L34.1 337.829L34.1 345.829ZM39.91 341.829L39.91 353.259L47.91 353.259L47.91 341.829L39.91 341.829ZM43.91 357.259L107 357.259L107 349.259L43.91 349.259L43.91 357.259ZM103 353.259L103 366.579L111 366.579L111 353.259L103 353.259ZM107 334.837L107 338.837L111 338.837L111 334.837L107 334.837ZM34.1 334.837L30.1 334.837L30.1 338.837L34.1 338.837L34.1 334.837ZM34.1 321.697L34.1 317.697L30.1 317.697L30.1 321.697L34.1 321.697ZM107 321.697L111 321.697L111 317.697L107 317.697L107 321.697ZM107 330.837L34.1 330.837L34.1 338.837L107 338.837L107 330.837ZM38.1 334.837L38.1 321.697L30.1 321.697L30.1 334.837L38.1 334.837ZM34.1 325.697L107 325.697L107 317.697L34.1 317.697L34.1 325.697ZM103 321.697L103 334.837L111 334.837L111 321.697L103 321.697ZM107 310.592L106.931 314.592L111 314.662L111 310.592L107 310.592ZM34.1 309.332L30.1 309.332L30.1 313.264L34.0309 313.332L34.1 309.332ZM34.1 295.562L33.2967 291.644L30.1 292.299L30.1 295.562L34.1 295.562ZM84.59 285.212L85.3933 289.131L85.4267 281.301L84.59 285.212ZM34.1 274.412L30.1 274.412L30.1 277.647L33.2633 278.324L34.1 274.412ZM34.1 261.092L34.0259 257.093L30.1 257.166L30.1 261.092L34.1 261.092ZM107 259.742L111 259.742L111 255.668L106.926 255.743L107 259.742ZM107 269.642L107.085 273.641L111 273.558L111 269.642L107 269.642ZM56.33 270.722L56.2447 266.723L55.5295 274.641L56.33 270.722ZM107 281.072L111 281.072L111 277.807L107.801 277.153L107 281.072ZM107 289.082L107.811 292.999L111 292.339L111 289.082L107 289.082ZM56.15 299.612L55.3389 295.695L56.0721 303.612L56.15 299.612ZM107 300.602L111 300.602L111 296.679L107.078 296.603L107 300.602ZM107.069 306.593L34.1691 305.333L34.0309 313.332L106.931 314.592L107.069 306.593ZM38.1 309.332L38.1 295.562L30.1 295.562L30.1 309.332L38.1 309.332ZM34.9032 299.481L85.3933 289.131L83.7867 281.294L33.2967 291.644L34.9032 299.481ZM85.4267 281.301L34.9367 270.501L33.2633 278.324L83.7533 289.124L85.4267 281.301ZM38.1 274.412L38.1 261.092L30.1 261.092L30.1 274.412L38.1 274.412ZM34.174 265.092L107.074 263.742L106.926 255.743L34.0259 257.093L34.174 265.092ZM103 259.742L103 269.642L111 269.642L111 259.742L103 259.742ZM106.915 265.643L56.2447 266.723L56.4152 274.721L107.085 273.641L106.915 265.643ZM55.5295 274.641L106.199 284.991L107.801 277.153L57.1305 266.803L55.5295 274.641ZM103 281.072L103 289.082L111 289.082L111 281.072L103 281.072ZM106.189 285.165L55.3389 295.695L56.9611 303.529L107.811 292.999L106.189 285.165ZM56.0721 303.612L106.922 304.602L107.078 296.603L56.2279 295.613L56.0721 303.612ZM103 300.602L103 310.592L111 310.592L111 300.602L103 300.602ZM105.11 241.507L101.722 239.381L101.722 239.381L105.11 241.507ZM44.18 248.077L45.5986 244.337L45.5881 244.333L45.5775 244.329L44.18 248.077ZM36.08 241.507L39.4981 239.429L39.4981 239.429L36.08 241.507ZM36.08 216.757L39.4796 218.865L39.4889 218.85L39.4981 218.834L36.08 216.757ZM44.18 210.187L45.5775 213.935L45.6162 213.92L45.6545 213.905L44.18 210.187ZM96.83 210.187L95.3982 213.922L95.4153 213.928L95.4325 213.935L96.83 210.187ZM105.11 216.757L108.479 214.601L108.474 214.592L108.468 214.584L105.11 216.757ZM96.74 224.317L93.7503 226.974L93.7882 227.017L93.8272 227.058L96.74 224.317ZM92.78 222.157L93.6181 218.246L93.6181 218.246L92.78 222.157ZM48.23 222.157L47.3623 218.252L47.3623 218.252L48.23 222.157ZM44.45 224.317L47.3628 227.058L47.4456 226.97L47.5229 226.878L44.45 224.317ZM44.45 233.947L47.5229 231.386L47.482 231.337L47.4396 231.289L44.45 233.947ZM48.23 236.107L47.3623 240.012L47.3623 240.012L48.23 236.107ZM92.78 236.197L93.4831 240.135L93.5509 240.122L93.6181 240.108L92.78 236.197ZM96.74 234.037L93.7504 231.379L93.7503 231.379L96.74 234.037ZM103.99 229.177C103.99 233.891 103.106 237.175 101.722 239.381L108.498 243.633C110.954 239.718 111.99 234.783 111.99 229.177L103.99 229.177ZM101.722 239.381C100.303 241.642 98.2752 243.286 95.453 244.321L98.207 251.832C102.585 250.227 106.077 247.492 108.498 243.633L101.722 239.381ZM95.453 244.321C92.3991 245.441 88.6268 246.057 84.05 246.057L84.05 254.057C89.3132 254.057 94.0609 253.353 98.207 251.832L95.453 244.321ZM84.05 246.057L56.78 246.057L56.78 254.057L84.05 254.057L84.05 246.057ZM56.78 246.057C52.1974 246.057 48.5055 245.439 45.5986 244.337L42.7614 251.817C46.8144 253.354 51.5225 254.057 56.78 254.057L56.78 246.057ZM45.5775 244.329C42.8297 243.304 40.8644 241.677 39.4981 239.429L32.6619 243.584C35.0156 247.457 38.4502 250.209 42.7825 251.825L45.5775 244.329ZM39.4981 239.429C38.1509 237.213 37.29 233.909 37.29 229.177L29.29 229.177C29.29 234.764 30.289 239.681 32.6619 243.584L39.4981 239.429ZM37.29 229.177C37.29 224.297 38.1608 220.992 39.4796 218.865L32.6804 214.649C30.2792 218.522 29.29 223.496 29.29 229.177L37.29 229.177ZM39.4981 218.834C40.8644 216.587 42.8297 214.959 45.5775 213.935L42.7825 206.439C38.4502 208.054 35.0155 210.807 32.6619 214.679L39.4981 218.834ZM45.6545 213.905C48.5432 212.76 52.2145 212.117 56.78 212.117L56.78 204.117C51.5055 204.117 46.7768 204.854 42.7055 206.468L45.6545 213.905ZM56.78 212.117L84.14 212.117L84.14 204.117L56.78 204.117L56.78 212.117ZM84.14 212.117C88.6329 212.117 92.3571 212.756 95.3982 213.922L98.2617 206.452C94.1029 204.858 89.3671 204.117 84.14 204.117L84.14 212.117ZM95.4325 213.935C98.1982 214.966 100.257 216.62 101.752 218.93L108.468 214.584C106.003 210.774 102.542 208.048 98.2275 206.439L95.4325 213.935ZM101.741 218.913C103.095 221.029 103.99 224.315 103.99 229.177L111.99 229.177C111.99 223.479 110.965 218.484 108.479 214.601L101.741 218.913ZM102.18 229.177C102.18 226.509 101.623 223.669 99.6528 221.575L93.8272 227.058C93.7771 227.005 94.18 227.405 94.18 229.177L102.18 229.177ZM99.7296 221.659C98.1033 219.83 95.9686 218.749 93.6181 218.246L91.9419 226.068C92.9514 226.284 93.4567 226.644 93.7503 226.974L99.7296 221.659ZM93.6181 218.246C91.6247 217.818 89.5101 217.617 87.29 217.617L87.29 225.617C89.0299 225.617 90.5753 225.775 91.9419 226.068L93.6181 218.246ZM87.29 217.617L53.72 217.617L53.72 225.617L87.29 225.617L87.29 217.617ZM53.72 217.617C51.4518 217.617 49.3232 217.816 47.3623 218.252L49.0977 226.062C50.3767 225.777 51.9081 225.617 53.72 225.617L53.72 217.617ZM47.3623 218.252C45.0404 218.768 42.9409 219.879 41.3771 221.756L47.5229 226.878C47.7591 226.594 48.1795 226.266 49.0977 226.062L47.3623 218.252ZM41.5372 221.575C39.5671 223.669 39.01 226.509 39.01 229.177L47.01 229.177C47.01 227.405 47.4129 227.005 47.3628 227.058L41.5372 221.575ZM39.01 229.177C39.01 231.82 39.6084 234.521 41.4603 236.604L47.4396 231.289C47.3716 231.213 47.01 230.734 47.01 229.177L39.01 229.177ZM41.3771 236.508C42.9409 238.384 45.0404 239.496 47.3623 240.012L49.0977 232.202C48.1795 231.998 47.7591 231.669 47.5229 231.386L41.3771 236.508ZM47.3623 240.012C49.3232 240.447 51.4518 240.647 53.72 240.647L53.72 232.647C51.9082 232.647 50.3767 232.486 49.0977 232.202L47.3623 240.012ZM53.72 240.647L87.29 240.647L87.29 232.647L53.72 232.647L53.72 240.647ZM87.29 240.647C89.4693 240.647 91.5377 240.482 93.4831 240.135L92.0768 232.259C90.6623 232.512 89.0707 232.647 87.29 232.647L87.29 240.647ZM93.6181 240.108C95.9686 239.604 98.1033 238.524 99.7296 236.694L93.7503 231.379C93.4567 231.71 92.9514 232.069 91.9419 232.286L93.6181 240.108ZM99.7296 236.694C101.597 234.593 102.18 231.845 102.18 229.177L94.18 229.177C94.18 230.829 93.8027 231.32 93.7504 231.379L99.7296 236.694ZM107 198.264L107 202.264L111 202.264L111 198.264L107 198.264ZM34.1 198.264L30.1 198.264L30.1 202.264L34.1 202.264L34.1 198.264ZM34.1 188.994L32.531 185.314L30.1 186.351L30.1 188.994L34.1 188.994ZM75.68 171.264L77.2489 174.943L75.68 167.264L75.68 171.264ZM34.1 171.264L30.1 171.264L30.1 175.264L34.1 175.264L34.1 171.264ZM34.1 160.284L34.1 156.284L30.1 156.284L30.1 160.284L34.1 160.284ZM107 160.284L111 160.284L111 156.284L107 156.284L107 160.284ZM107 169.104L108.515 172.806L111 171.789L111 169.104L107 169.104ZM63.44 186.924L61.9255 183.222L63.44 190.924L63.44 186.924ZM107 186.924L111 186.924L111 182.924L107 182.924L107 186.924ZM107 194.264L34.1 194.264L34.1 202.264L107 202.264L107 194.264ZM38.1 198.264L38.1 188.994L30.1 188.994L30.1 198.264L38.1 198.264ZM35.6689 192.673L77.2489 174.943L74.111 167.584L32.531 185.314L35.6689 192.673ZM75.68 167.264L34.1 167.264L34.1 175.264L75.68 175.264L75.68 167.264ZM38.1 171.264L38.1 160.284L30.1 160.284L30.1 171.264L38.1 171.264ZM34.1 164.284L107 164.284L107 156.284L34.1 156.284L34.1 164.284ZM103 160.284L103 169.104L111 169.104L111 160.284L103 160.284ZM105.485 165.402L61.9255 183.222L64.9545 190.626L108.515 172.806L105.485 165.402ZM63.44 190.924L107 190.924L107 182.924L63.44 182.924L63.44 190.924ZM103 186.924L103 198.264L111 198.264L111 186.924L103 186.924ZM107 148.861L107 152.861L111 152.861L111 148.861L107 148.861ZM34.1 148.861L30.1 148.861L30.1 152.861L34.1 152.861L34.1 148.861ZM34.1 135.721L34.1 131.721L30.1 131.721L30.1 135.721L34.1 135.721ZM107 135.721L111 135.721L111 131.721L107 131.721L107 135.721ZM107 144.861L34.1 144.861L34.1 152.861L107 152.861L107 144.861ZM38.1 148.861L38.1 135.721L30.1 135.721L30.1 148.861L38.1 148.861ZM34.1 139.721L107 139.721L107 131.721L34.1 131.721L34.1 139.721ZM103 135.721L103 148.861L111 148.861L111 135.721L103 135.721ZM107 128.126L106.216 132.048L111 133.005L111 128.126L107 128.126ZM34.1 113.546L30.1 113.546L30.1 116.825L33.3155 117.468L34.1 113.546ZM34.1 99.3258L33.3155 95.4035L30.1 96.0466L30.1 99.3258L34.1 99.3258ZM107 84.7458L111 84.7458L111 79.8666L106.216 80.8235L107 84.7458ZM107 97.0758L107.675 101.018L111 100.449L111 97.0758L107 97.0758ZM90.17 99.9558L89.4953 96.0131L86.17 96.5821L86.17 99.9558L90.17 99.9558ZM90.17 112.646L86.17 112.646L86.17 116.002L89.4748 116.585L90.17 112.646ZM107 115.616L111 115.616L111 112.26L107.695 111.677L107 115.616ZM81.71 111.296L81.0712 115.244L85.71 115.995L85.71 111.296L81.71 111.296ZM81.71 101.396L85.71 101.396L85.71 96.6967L81.0712 97.4471L81.71 101.396ZM51.11 106.346L50.4712 102.397L50.4712 110.294L51.11 106.346ZM107.784 124.203L34.8844 109.623L33.3155 117.468L106.216 132.048L107.784 124.203ZM38.1 113.546L38.1 99.3258L30.1 99.3258L30.1 113.546L38.1 113.546ZM34.8844 103.248L107.784 88.6681L106.216 80.8235L33.3155 95.4035L34.8844 103.248ZM103 84.7458L103 97.0758L111 97.0758L111 84.7458L103 84.7458ZM106.325 93.1331L89.4953 96.0131L90.8447 103.898L107.675 101.018L106.325 93.1331ZM86.17 99.9558L86.17 112.646L94.17 112.646L94.17 99.9558L86.17 99.9558ZM89.4748 116.585L106.305 119.555L107.695 111.677L90.8651 108.707L89.4748 116.585ZM103 115.616L103 128.126L111 128.126L111 115.616L103 115.616ZM85.71 111.296L85.71 101.396L77.71 101.396L77.71 111.296L85.71 111.296ZM81.0712 97.4471L50.4712 102.397L51.7487 110.294L82.3487 105.344L81.0712 97.4471ZM50.4712 110.294L81.0712 115.244L82.3487 107.347L51.7487 102.397L50.4712 110.294ZM107 77.4143L107 81.4143L111 81.4143L111 77.4143L107 77.4143ZM34.1 77.4143L30.1 77.4143L30.1 81.4143L34.1 81.4143L34.1 77.4143ZM34.1 64.0943L34.1 60.0943L30.1 60.0943L30.1 64.0943L34.1 64.0943ZM97.82 64.0943L97.82 68.0943L101.82 68.0943L101.82 64.0943L97.82 64.0943ZM97.82 46.4543L97.82 42.4543L93.82 42.4543L93.82 46.4543L97.82 46.4543ZM107 46.4543L111 46.4543L111 42.4543L107 42.4543L107 46.4543ZM107 73.4143L34.1 73.4143L34.1 81.4143L107 81.4143L107 73.4143ZM38.1 77.4143L38.1 64.0943L30.1 64.0943L30.1 77.4143L38.1 77.4143ZM34.1 68.0943L97.82 68.0943L97.82 60.0943L34.1 60.0943L34.1 68.0943ZM101.82 64.0943L101.82 46.4543L93.82 46.4543L93.82 64.0943L101.82 64.0943ZM97.82 50.4543L107 50.4543L107 42.4543L97.82 42.4543L97.82 50.4543ZM103 46.4543L103 77.4143L111 77.4143L111 46.4543L103 46.4543ZM105.47 32.505L108.912 34.5423L108.928 34.516L108.943 34.4896L105.47 32.505ZM97.91 39.165L96.2548 35.5235L96.2548 35.5235L97.91 39.165ZM85.76 41.685L81.8353 42.4576L82.4953 45.8102L85.9099 45.6822L85.76 41.685ZM83.51 30.255L83.3399 26.2586L78.6855 26.4567L79.5853 31.0276L83.51 30.255ZM90.98 29.265L91.9501 33.1456L92.0005 33.133L92.0506 33.1191L90.98 29.265ZM96.02 26.655L98.775 29.555L98.8493 29.4844L98.92 29.41L96.02 26.655ZM95.84 17.385L98.1649 14.1301L98.1294 14.1047L98.0933 14.0801L95.84 17.385ZM83.06 18.195L85.3667 21.4629L85.3667 21.4629L83.06 18.195ZM76.94 23.955L79.9393 26.6015L79.9638 26.5738L79.9877 26.5456L76.94 23.955ZM68.84 33.135L65.8406 30.4885L65.8242 30.5072L65.8079 30.526L68.84 33.135ZM61.46 39.345L63.37 42.8595L63.4159 42.8346L63.4611 42.8085L61.46 39.345ZM37.97 36.555L40.9012 33.8332L40.9012 33.8332L37.97 36.555ZM34.91 14.235L38.5249 15.9473L38.5435 15.9081L38.5612 15.8685L34.91 14.235ZM39.23 8.835L41.545 12.097L41.5794 12.0726L41.6134 12.0474L39.23 8.835ZM45.62 5.775L46.6806 9.63182L46.6932 9.62835L46.7058 9.62479L45.62 5.775ZM53.09 4.515L57.0304 3.82699L56.4109 0.279281L52.8179 0.524261L53.09 4.515ZM55.07 15.855L55.2802 19.8495L59.7865 19.6123L59.0104 15.167L55.07 15.855ZM48.95 16.665L49.7344 20.5873L49.7969 20.5748L49.8589 20.5604L48.95 16.665ZM44.72 18.735L47.4614 21.6478L47.5056 21.6063L47.5484 21.5634L44.72 18.735ZM45.17 27.645L42.637 30.7408L42.6451 30.7474L42.6532 30.754L45.17 27.645ZM56.06 27.645L58.1912 31.0299L58.2203 31.0116L58.249 30.9929L56.06 27.645ZM60.92 23.235L57.9189 20.5905L57.9097 20.601L60.92 23.235ZM68.93 14.145L71.9311 16.7895L71.9624 16.754L71.9928 16.7178L68.93 14.145ZM77.84 6.495L79.933 9.90368L79.9682 9.88206L80.003 9.85971L77.84 6.495ZM99.35 5.59499L97.3489 9.05845L97.378 9.07528L97.4074 9.09162L99.35 5.59499ZM105.74 11.985L109.237 10.0424L109.229 10.0296L109.222 10.0168L105.74 11.985ZM103.99 21.525C103.99 25.4083 103.245 28.3372 101.997 30.5204L108.943 34.4896C111.055 30.7928 111.99 26.4017 111.99 21.525L103.99 21.525ZM102.028 30.4677C100.731 32.6584 98.857 34.3407 96.2548 35.5235L99.5652 42.8065C103.563 40.9893 106.729 38.2316 108.912 34.5423L102.028 30.4677ZM96.2548 35.5235C93.5554 36.7505 90.05 37.5213 85.6101 37.6878L85.9099 45.6822C91.0699 45.4887 95.6646 44.5795 99.5652 42.8065L96.2548 35.5235ZM89.6847 40.9124L87.4347 29.4824L79.5853 31.0276L81.8353 42.4576L89.6847 40.9124ZM83.68 34.2514C86.7019 34.1228 89.4693 33.7658 91.9501 33.1456L90.0098 25.3844C88.1706 25.8442 85.958 26.1472 83.3399 26.2586L83.68 34.2514ZM92.0506 33.1191C94.628 32.4031 96.9618 31.2775 98.775 29.555L93.265 23.755C92.6781 24.3125 91.6519 24.9269 89.9094 25.4109L92.0506 33.1191ZM98.92 29.41C100.879 27.3481 101.73 24.7443 101.73 21.975L93.73 21.975C93.73 23.0457 93.4412 23.5619 93.12 23.9L98.92 29.41ZM101.73 21.975C101.73 19.0722 100.855 16.0515 98.1649 14.1301L93.515 20.6399C93.518 20.6421 93.517 20.6416 93.514 20.6388C93.511 20.6359 93.5093 20.6337 93.5094 20.6339C93.5096 20.6341 93.5142 20.64 93.5222 20.654C93.5303 20.6681 93.5432 20.6927 93.5588 20.7305C93.6242 20.8894 93.73 21.2656 93.73 21.975L101.73 21.975ZM98.0933 14.0801C95.9653 12.6292 93.4801 12.035 90.89 12.035L90.89 20.035C92.2598 20.035 93.0747 20.3408 93.5866 20.6899L98.0933 14.0801ZM90.89 12.035C87.1102 12.035 83.632 12.895 80.7532 14.9271L85.3667 21.4629C86.5679 20.615 88.3097 20.035 90.89 20.035L90.89 12.035ZM80.7532 14.9271C78.3783 16.6036 76.096 18.7718 73.8922 21.3644L79.9877 26.5456C81.864 24.3382 83.6617 22.6664 85.3667 21.4629L80.7532 14.9271ZM73.9406 21.3085L65.8406 30.4885L71.8393 35.7815L79.9393 26.6015L73.9406 21.3085ZM65.8079 30.526C63.8543 32.7964 61.7356 34.5661 59.4589 35.8815L63.4611 42.8085C66.5843 41.0039 69.3856 38.6336 71.872 35.744L65.8079 30.526ZM59.5499 35.8305C57.5176 36.935 54.8248 37.595 51.29 37.595L51.29 45.595C55.7951 45.595 59.8823 44.755 63.37 42.8595L59.5499 35.8305ZM51.29 37.595C46.3381 37.595 43.0796 36.1792 40.9012 33.8332L35.0388 39.2768C39.1004 43.6508 44.7218 45.595 51.29 45.595L51.29 37.595ZM40.9012 33.8332C38.6389 31.3969 37.29 27.8779 37.29 22.785L29.29 22.785C29.29 29.3321 31.0611 34.9931 35.0388 39.2768L40.9012 33.8332ZM37.29 22.785C37.29 19.7578 37.7719 17.5371 38.5249 15.9473L31.295 12.5227C29.8881 15.4928 29.29 18.9722 29.29 22.785L37.29 22.785ZM38.5612 15.8685C39.318 14.177 40.3225 12.9646 41.545 12.097L36.915 5.57297C34.4174 7.34542 32.542 9.73299 31.2587 12.6015L38.5612 15.8685ZM41.6134 12.0474C43.0472 10.9835 44.7217 10.1705 46.6806 9.63182L44.5593 1.91817C41.7183 2.69947 39.1327 3.92645 36.8466 5.62261L41.6134 12.0474ZM46.7058 9.62479C48.758 9.04598 50.9735 8.66859 53.3621 8.50573L52.8179 0.524261C49.9265 0.721401 47.162 1.18401 44.5341 1.9252L46.7058 9.62479ZM49.1496 5.203L51.1296 16.543L59.0104 15.167L57.0304 3.82699L49.1496 5.203ZM54.8597 11.8605C52.3968 11.9902 50.1166 12.2853 48.0411 12.7696L49.8589 20.5604C51.3833 20.2047 53.1831 19.9598 55.2802 19.8495L54.8597 11.8605ZM48.1655 12.7427C45.8013 13.2155 43.6044 14.1938 41.8915 15.9066L47.5484 21.5634C47.8756 21.2362 48.4986 20.8345 49.7344 20.5873L48.1655 12.7427ZM41.9785 15.8222C39.8924 17.7856 39.19 20.4543 39.19 23.055L47.19 23.055C47.19 22.4381 47.2732 22.0675 47.343 21.8704C47.4051 21.6951 47.4562 21.6528 47.4614 21.6478L41.9785 15.8222ZM39.19 23.055C39.19 26.0188 40.2334 28.7742 42.637 30.7408L47.7029 24.5492C47.4666 24.3558 47.19 24.0512 47.19 23.055L39.19 23.055ZM42.6532 30.754C44.7511 32.4523 47.2799 33.175 49.94 33.175L49.94 25.175C48.7601 25.175 48.1088 24.8777 47.6868 24.536L42.6532 30.754ZM49.94 33.175C52.942 33.175 55.7746 32.5515 58.1912 31.0299L53.9287 24.2601C53.1054 24.7785 51.8579 25.175 49.94 25.175L49.94 33.175ZM58.249 30.9929C60.2028 29.7154 62.092 27.97 63.9303 25.869L57.9097 20.601C56.388 22.34 55.0372 23.5346 53.871 24.2971L58.249 30.9929ZM63.9211 25.8795L71.9311 16.7895L65.9289 11.5005L57.9189 20.5905L63.9211 25.8795ZM71.9928 16.7178C74.2298 14.0547 76.87 11.7845 79.933 9.90368L75.7469 3.08631C71.9699 5.40553 68.6702 8.23531 65.8672 11.5722L71.9928 16.7178ZM80.003 9.85971C82.5978 8.19161 85.8906 7.25499 90.08 7.25499L90.08 -0.745006C84.6693 -0.745006 79.8021 0.478377 75.6769 3.13028L80.003 9.85971ZM90.08 7.25499C92.9408 7.25499 95.3256 7.88943 97.3489 9.05845L101.351 2.13153C97.9744 0.18056 94.1792 -0.745006 90.08 -0.745006L90.08 7.25499ZM97.4074 9.09162C99.4455 10.2239 101.05 11.8169 102.258 13.9532L109.222 10.0168C107.31 6.63304 104.654 3.96609 101.293 2.09836L97.4074 9.09162ZM102.243 13.9276C103.357 15.9322 103.99 18.4188 103.99 21.525L111.99 21.525C111.99 17.3112 111.123 13.4378 109.237 10.0424L102.243 13.9276Z" fill="#FF812E"/>
</g>
<defs>
<filter id="filter0_d_134_1017" x="29.29" y="3.255" width="82.7002" height="504.575" filterUnits="userSpaceOnUse" color-interpolation-filters="sRGB">
<feFlood flood-opacity="0" result="BackgroundImageFix"/>
<feColorMatrix in="SourceAlpha" type="matrix" values="0 0 0 0 0 0 0 0 0 0 0 0 0 0 0 0 0 0 127 0" result="hardAlpha"/>
<feOffset dy="4"/>
<feGaussianBlur stdDeviation="2"/>
<feComposite in2="hardAlpha" operator="out"/>
<feColorMatrix type="matrix" values="0 0 0 0 0 0 0 0 0 0 0 0 0 0 0 0 0 0 0.25 0"/>
<feBlend mode="normal" in2="BackgroundImageFix" result="effect1_dropShadow_134_1017"/>
<feBlend mode="normal" in="SourceGraphic" in2="effect1_dropShadow_134_1017" result="shape"/>
</filter>
</defs>
</svg>
