<svg width="15" height="13" viewBox="0 0 15 13" fill="none" xmlns="http://www.w3.org/2000/svg">
<path d="M11.6314 8.08682C11.4542 8.25855 11.3728 8.5069 11.4131 8.75046L12.0214 12.1166C12.0727 12.4019 11.9523 12.6906 11.7135 12.8555C11.4795 13.0265 11.1682 13.047 10.913 12.9102L7.88284 11.3298C7.77748 11.2737 7.66049 11.2436 7.54076 11.2401H7.35535C7.29104 11.2497 7.2281 11.2702 7.17063 11.3017L4.13977 12.8897C3.98994 12.9649 3.82026 12.9916 3.65401 12.9649C3.24898 12.8883 2.97874 12.5024 3.0451 12.0953L3.65401 8.72925C3.69438 8.48364 3.61296 8.23392 3.43576 8.05946L0.96524 5.66488C0.758622 5.46442 0.686785 5.16338 0.781199 4.89178C0.872878 4.62085 1.10686 4.42313 1.38942 4.37866L4.78973 3.88538C5.04834 3.85869 5.27548 3.70134 5.39179 3.46872L6.89012 0.396816C6.9257 0.3284 6.97154 0.265456 7.02695 0.212091L7.08853 0.1642C7.12068 0.128623 7.15763 0.0992041 7.19868 0.0752583L7.27325 0.0478917L7.38956 0H7.67759C7.93484 0.0266825 8.1613 0.18062 8.27966 0.410499L9.79782 3.46872C9.90729 3.69244 10.1201 3.84775 10.3657 3.88538L13.766 4.37866C14.0533 4.41971 14.2935 4.61812 14.3886 4.89178C14.4782 5.16612 14.4009 5.46715 14.1902 5.66488L11.6314 8.08682Z" fill="#FF9900"/>
</svg>
